<?xml version="1.0" encoding="UTF-8" standalone="no"?>
<!DOCTYPE svg PUBLIC "-//W3C//DTD SVG 1.1//EN"
 "http://www.w3.org/Graphics/SVG/1.1/DTD/svg11.dtd">
<!-- Generated by graphviz version 7.1.0 (20230121.1956)
 -->
<!-- Title: abilities Pages: 1 -->
<svg width="506pt" height="332pt"
 viewBox="0.00 0.00 506.00 332.00" xmlns="http://www.w3.org/2000/svg" xmlns:xlink="http://www.w3.org/1999/xlink">
<g id="graph0" class="graph" transform="scale(1 1) rotate(0) translate(4 328)">
<title>abilities</title>
<polygon fill="white" stroke="none" points="-4,4 -4,-328 502,-328 502,4 -4,4"/>
<!-- STR -->
<g id="node1" class="node">
<title>STR</title>
<ellipse fill="none" stroke="black" cx="175" cy="-306" rx="29.8" ry="18"/>
<text text-anchor="middle" x="175" y="-302.3" font-family="Times,serif" font-size="14.00">STR</text>
</g>
<!-- pre -->
<g id="node2" class="node">
<title>pre</title>
<ellipse fill="none" stroke="black" cx="181" cy="-162" rx="27" ry="18"/>
<text text-anchor="middle" x="181" y="-158.3" font-family="Times,serif" font-size="14.00">pre</text>
</g>
<!-- STR&#45;&#45;pre -->
<g id="edge1" class="edge">
<title>STR&#45;&#45;pre</title>
<path fill="none" stroke="black" d="M186.02,-289.13C192.35,-279.01 199.69,-265.33 203,-252 206.85,-236.47 206.13,-231.69 203,-216 200.43,-203.1 194.66,-189.41 189.68,-179.18"/>
</g>
<!-- coo -->
<g id="node7" class="node">
<title>coo</title>
<ellipse fill="none" stroke="black" cx="250" cy="-306" rx="27" ry="18"/>
<text text-anchor="middle" x="250" y="-302.3" font-family="Times,serif" font-size="14.00">coo</text>
</g>
<!-- STR&#45;&#45;coo -->
<g id="edge5" class="edge">
<title>STR&#45;&#45;coo</title>
<path fill="none" stroke="black" d="M205.18,-306C211.01,-306 216.85,-306 222.69,-306"/>
</g>
<!-- phy -->
<g id="node10" class="node">
<title>phy</title>
<ellipse fill="none" stroke="black" cx="94" cy="-234" rx="27.9" ry="18"/>
<text text-anchor="middle" x="94" y="-230.3" font-family="Times,serif" font-size="14.00">phy</text>
</g>
<!-- STR&#45;&#45;phy -->
<g id="edge9" class="edge">
<title>STR&#45;&#45;phy</title>
<path fill="none" stroke="black" d="M158.61,-290.83C144.46,-278.61 124.15,-261.05 110.09,-248.91"/>
</g>
<!-- for -->
<g id="node11" class="node">
<title>for</title>
<ellipse fill="none" stroke="black" cx="330" cy="-234" rx="27" ry="18"/>
<text text-anchor="middle" x="330" y="-230.3" font-family="Times,serif" font-size="14.00">for</text>
</g>
<!-- STR&#45;&#45;for -->
<g id="edge11" class="edge">
<title>STR&#45;&#45;for</title>
<path fill="none" stroke="black" d="M198.54,-294.37C228.35,-280.91 279.31,-257.89 308.24,-244.83"/>
</g>
<!-- wil -->
<g id="node20" class="node">
<title>wil</title>
<ellipse fill="none" stroke="black" cx="27" cy="-162" rx="27" ry="18"/>
<text text-anchor="middle" x="27" y="-158.3" font-family="Times,serif" font-size="14.00">wil</text>
</g>
<!-- STR&#45;&#45;wil -->
<g id="edge27" class="edge">
<title>STR&#45;&#45;wil</title>
<path fill="none" stroke="black" d="M146.85,-299.2C120.2,-292.31 80.84,-278.28 57,-252 38.59,-231.71 31.42,-199.72 28.67,-180.13"/>
</g>
<!-- CHA -->
<g id="node3" class="node">
<title>CHA</title>
<ellipse fill="none" stroke="black" cx="294" cy="-18" rx="31.7" ry="18"/>
<text text-anchor="middle" x="294" y="-14.3" font-family="Times,serif" font-size="14.00">CHA</text>
</g>
<!-- pre&#45;&#45;CHA -->
<g id="edge2" class="edge">
<title>pre&#45;&#45;CHA</title>
<path fill="none" stroke="black" d="M200.85,-149.59C216.11,-140.03 236.9,-125.21 251,-108 269.05,-85.97 281.77,-55.08 288.49,-36.1"/>
</g>
<!-- DEX -->
<g id="node4" class="node">
<title>DEX</title>
<ellipse fill="none" stroke="black" cx="326" cy="-306" rx="31.4" ry="18"/>
<text text-anchor="middle" x="326" y="-302.3" font-family="Times,serif" font-size="14.00">DEX</text>
</g>
<!-- cun -->
<g id="node5" class="node">
<title>cun</title>
<ellipse fill="none" stroke="black" cx="325" cy="-162" rx="27.1" ry="18"/>
<text text-anchor="middle" x="325" y="-158.3" font-family="Times,serif" font-size="14.00">cun</text>
</g>
<!-- DEX&#45;&#45;cun -->
<g id="edge3" class="edge">
<title>DEX&#45;&#45;cun</title>
<path fill="none" stroke="black" d="M313.43,-289.36C306.2,-279.33 297.81,-265.67 294,-252 289.71,-236.59 289.82,-231.44 294,-216 297.74,-202.21 306.05,-188.34 313.13,-178.24"/>
</g>
<!-- bal -->
<g id="node8" class="node">
<title>bal</title>
<ellipse fill="none" stroke="black" cx="167" cy="-234" rx="27" ry="18"/>
<text text-anchor="middle" x="167" y="-230.3" font-family="Times,serif" font-size="14.00">bal</text>
</g>
<!-- DEX&#45;&#45;bal -->
<g id="edge7" class="edge">
<title>DEX&#45;&#45;bal</title>
<path fill="none" stroke="black" d="M301.5,-294.22C270.84,-280.72 218.77,-257.79 189.21,-244.78"/>
</g>
<!-- eva -->
<g id="node13" class="node">
<title>eva</title>
<ellipse fill="none" stroke="black" cx="402" cy="-234" rx="27" ry="18"/>
<text text-anchor="middle" x="402" y="-230.3" font-family="Times,serif" font-size="14.00">eva</text>
</g>
<!-- DEX&#45;&#45;eva -->
<g id="edge13" class="edge">
<title>DEX&#45;&#45;eva</title>
<path fill="none" stroke="black" d="M342.12,-290.15C355.28,-278.03 373.75,-261.02 386.68,-249.11"/>
</g>
<!-- per -->
<g id="node21" class="node">
<title>per</title>
<ellipse fill="none" stroke="black" cx="471" cy="-162" rx="27" ry="18"/>
<text text-anchor="middle" x="471" y="-158.3" font-family="Times,serif" font-size="14.00">per</text>
</g>
<!-- DEX&#45;&#45;per -->
<g id="edge29" class="edge">
<title>DEX&#45;&#45;per</title>
<path fill="none" stroke="black" d="M354.51,-298.09C379.63,-290.64 415.61,-276.42 438,-252 456.71,-231.59 465.07,-199.64 468.61,-180.08"/>
</g>
<!-- WIS -->
<g id="node6" class="node">
<title>WIS</title>
<ellipse fill="none" stroke="black" cx="136" cy="-18" rx="29.8" ry="18"/>
<text text-anchor="middle" x="136" y="-14.3" font-family="Times,serif" font-size="14.00">WIS</text>
</g>
<!-- cun&#45;&#45;WIS -->
<g id="edge4" class="edge">
<title>cun&#45;&#45;WIS</title>
<path fill="none" stroke="black" d="M303.87,-150.49C299.04,-148.23 293.88,-145.94 289,-144 241.2,-124.98 217.72,-141.86 179,-108 157.17,-88.91 145.42,-56.24 139.96,-36.24"/>
</g>
<!-- men -->
<g id="node19" class="node">
<title>men</title>
<ellipse fill="none" stroke="black" cx="214" cy="-18" rx="30.59" ry="18"/>
<text text-anchor="middle" x="214" y="-14.3" font-family="Times,serif" font-size="14.00">men</text>
</g>
<!-- WIS&#45;&#45;men -->
<g id="edge25" class="edge">
<title>WIS&#45;&#45;men</title>
<path fill="none" stroke="black" d="M166.16,-18C171.77,-18 177.38,-18 182.98,-18"/>
</g>
<!-- coo&#45;&#45;DEX -->
<g id="edge6" class="edge">
<title>coo&#45;&#45;DEX</title>
<path fill="none" stroke="black" d="M277.31,-306C283.02,-306 288.72,-306 294.43,-306"/>
</g>
<!-- CON -->
<g id="node9" class="node">
<title>CON</title>
<ellipse fill="none" stroke="black" cx="104" cy="-162" rx="32.49" ry="18"/>
<text text-anchor="middle" x="104" y="-158.3" font-family="Times,serif" font-size="14.00">CON</text>
</g>
<!-- bal&#45;&#45;CON -->
<g id="edge8" class="edge">
<title>bal&#45;&#45;CON</title>
<path fill="none" stroke="black" d="M153.64,-218.15C143.09,-206.44 128.43,-190.14 117.78,-178.31"/>
</g>
<!-- res -->
<g id="node14" class="node">
<title>res</title>
<ellipse fill="none" stroke="black" cx="253" cy="-162" rx="27" ry="18"/>
<text text-anchor="middle" x="253" y="-158.3" font-family="Times,serif" font-size="14.00">res</text>
</g>
<!-- CON&#45;&#45;res -->
<g id="edge15" class="edge">
<title>CON&#45;&#45;res</title>
<path fill="none" stroke="black" d="M120.55,-177.97C129.64,-185.63 141.58,-193.99 154,-198 176.84,-205.37 185.35,-205.94 208,-198 219.71,-193.89 230.63,-185.32 238.78,-177.57"/>
</g>
<!-- end -->
<g id="node15" class="node">
<title>end</title>
<ellipse fill="none" stroke="black" cx="104" cy="-90" rx="27.9" ry="18"/>
<text text-anchor="middle" x="104" y="-86.3" font-family="Times,serif" font-size="14.00">end</text>
</g>
<!-- CON&#45;&#45;end -->
<g id="edge17" class="edge">
<title>CON&#45;&#45;end</title>
<path fill="none" stroke="black" d="M104,-143.7C104,-132.85 104,-118.92 104,-108.1"/>
</g>
<!-- xxx -->
<g id="node17" class="node">
<title>xxx</title>
<ellipse fill="none" stroke="black" cx="215" cy="-90" rx="27" ry="18"/>
<text text-anchor="middle" x="215" y="-86.3" font-family="Times,serif" font-size="14.00">xxx</text>
</g>
<!-- CON&#45;&#45;xxx -->
<g id="edge21" class="edge">
<title>CON&#45;&#45;xxx</title>
<path fill="none" stroke="black" d="M124.88,-147.83C145.23,-135 175.91,-115.65 195.7,-103.17"/>
</g>
<!-- phy&#45;&#45;CON -->
<g id="edge10" class="edge">
<title>phy&#45;&#45;CON</title>
<path fill="none" stroke="black" d="M96.47,-215.7C98.02,-204.85 100.01,-190.92 101.56,-180.1"/>
</g>
<!-- INT -->
<g id="node12" class="node">
<title>INT</title>
<ellipse fill="none" stroke="black" cx="398" cy="-162" rx="27.9" ry="18"/>
<text text-anchor="middle" x="398" y="-158.3" font-family="Times,serif" font-size="14.00">INT</text>
</g>
<!-- for&#45;&#45;INT -->
<g id="edge12" class="edge">
<title>for&#45;&#45;INT</title>
<path fill="none" stroke="black" d="M344.09,-218.5C355.76,-206.48 372.26,-189.49 383.93,-177.49"/>
</g>
<!-- wit -->
<g id="node16" class="node">
<title>wit</title>
<ellipse fill="none" stroke="black" cx="397" cy="-90" rx="27" ry="18"/>
<text text-anchor="middle" x="397" y="-86.3" font-family="Times,serif" font-size="14.00">wit</text>
</g>
<!-- INT&#45;&#45;wit -->
<g id="edge19" class="edge">
<title>INT&#45;&#45;wit</title>
<path fill="none" stroke="black" d="M397.75,-143.7C397.6,-132.85 397.4,-118.92 397.24,-108.1"/>
</g>
<!-- lea -->
<g id="node18" class="node">
<title>lea</title>
<ellipse fill="none" stroke="black" cx="325" cy="-90" rx="27" ry="18"/>
<text text-anchor="middle" x="325" y="-86.3" font-family="Times,serif" font-size="14.00">lea</text>
</g>
<!-- INT&#45;&#45;lea -->
<g id="edge23" class="edge">
<title>INT&#45;&#45;lea</title>
<path fill="none" stroke="black" d="M382.87,-146.5C370.26,-134.4 352.39,-117.27 339.86,-105.25"/>
</g>
<!-- eva&#45;&#45;INT -->
<g id="edge14" class="edge">
<title>eva&#45;&#45;INT</title>
<path fill="none" stroke="black" d="M401.01,-215.7C400.39,-204.85 399.6,-190.92 398.98,-180.1"/>
</g>
<!-- res&#45;&#45;INT -->
<g id="edge16" class="edge">
<title>res&#45;&#45;INT</title>
<path fill="none" stroke="black" d="M267.22,-177.57C275.37,-185.32 286.29,-193.89 298,-198 320.65,-205.94 329.31,-205.82 352,-198 363.89,-193.9 375.05,-185.33 383.4,-177.57"/>
</g>
<!-- end&#45;&#45;WIS -->
<g id="edge18" class="edge">
<title>end&#45;&#45;WIS</title>
<path fill="none" stroke="black" d="M111.58,-72.41C116.68,-61.25 123.38,-46.6 128.47,-35.47"/>
</g>
<!-- wit&#45;&#45;CHA -->
<g id="edge20" class="edge">
<title>wit&#45;&#45;CHA</title>
<path fill="none" stroke="black" d="M378.59,-76.49C360.3,-64.06 332.37,-45.07 313.66,-32.36"/>
</g>
<!-- xxx&#45;&#45;CHA -->
<g id="edge22" class="edge">
<title>xxx&#45;&#45;CHA</title>
<path fill="none" stroke="black" d="M230.61,-75.17C244.1,-63.22 263.54,-45.99 277.33,-33.77"/>
</g>
<!-- lea&#45;&#45;WIS -->
<g id="edge24" class="edge">
<title>lea&#45;&#45;WIS</title>
<path fill="none" stroke="black" d="M300.97,-81.25C270.99,-71.43 218.26,-53.63 174,-36 169.17,-34.07 164.05,-31.89 159.18,-29.74"/>
</g>
<!-- men&#45;&#45;CHA -->
<g id="edge26" class="edge">
<title>men&#45;&#45;CHA</title>
<path fill="none" stroke="black" d="M244.94,-18C250.69,-18 256.44,-18 262.19,-18"/>
</g>
<!-- wil&#45;&#45;WIS -->
<g id="edge28" class="edge">
<title>wil&#45;&#45;WIS</title>
<path fill="none" stroke="black" d="M31.89,-143.91C37.92,-124.93 49.56,-94.06 67,-72 80.3,-55.18 100.08,-40.71 115.05,-31.16"/>
</g>
<!-- per&#45;&#45;CHA -->
<g id="edge30" class="edge">
<title>per&#45;&#45;CHA</title>
<path fill="none" stroke="black" d="M467.91,-143.97C463.47,-124.16 453.47,-91.68 433,-72 402.93,-43.09 355.48,-29.56 324.55,-23.52"/>
</g>
</g>
</svg>
